<svg width="13" height="18" viewBox="0 0 13 18" fill="none" xmlns="http://www.w3.org/2000/svg">
<path d="M12.8264 4.76328L8.85256 0.678348C8.74176 0.564509 8.59034 0.5 8.43338 0.5H0.590909C0.264062 0.5 0 0.771317 0 1.10714V16.8929C0 17.2287 0.264062 17.5 0.590909 17.5H12.4091C12.7359 17.5 13 17.2287 13 16.8929V5.19208C13 5.0308 12.9372 4.87712 12.8264 4.76328ZM4.43182 6.91295C4.83991 6.91295 5.17045 7.25257 5.17045 7.67188C5.17045 8.09118 4.83991 8.4308 4.43182 8.4308C4.02372 8.4308 3.69318 8.09118 3.69318 7.67188C3.69318 7.25257 4.02372 6.91295 4.43182 6.91295ZM9.89773 12.4911H3.10227C2.97855 12.4911 2.91023 12.345 2.98594 12.2463L4.82884 9.83292C4.84265 9.81478 4.86031 9.80011 4.88047 9.79002C4.90062 9.77993 4.92275 9.77469 4.94517 9.77469C4.96759 9.77469 4.98972 9.77993 5.00987 9.79002C5.03003 9.80011 5.04769 9.81478 5.06151 9.83292L5.82045 10.8271L7.2571 8.94498C7.27092 8.92684 7.28858 8.91216 7.30873 8.90207C7.32889 8.89198 7.35102 8.88674 7.37344 8.88674C7.39586 8.88674 7.41799 8.89198 7.43814 8.90207C7.4583 8.91216 7.47595 8.92684 7.48977 8.94498L10.0104 12.2463C10.0898 12.345 10.0196 12.4911 9.89773 12.4911ZM8.16193 5.47098V1.90022L11.6372 5.47098H8.16193Z" fill="#595959"/>
</svg>
