<svg width="13" height="18" viewBox="0 0 13 18" fill="none" xmlns="http://www.w3.org/2000/svg">
<path d="M6.5 7.83623L6.81244 7.29721C6.90644 7.13505 6.84374 6.99188 6.81244 6.93785C6.78114 6.88383 6.688 6.75816 6.5 6.75816C6.312 6.75816 6.21887 6.8838 6.18757 6.93785C6.15627 6.99188 6.09357 7.13501 6.18757 7.29721L6.5 7.83623ZM3.0816 12.2966C3.0503 12.3506 2.9876 12.4937 3.0816 12.6559C3.17557 12.8181 3.33137 12.8356 3.394 12.8356C3.45664 12.8356 3.61244 12.8181 3.70644 12.6559L4.01887 12.1169H3.394C3.20604 12.1169 3.11294 12.2426 3.0816 12.2966ZM5.7509 11.1208H7.2491L6.5 9.82842L5.7509 11.1208Z" fill="#595959"/>
<path d="M9.16667 4.81641C8.89053 4.81641 8.66667 4.59341 8.66667 4.31836V0.5H1.5C0.6729 0.5 0 1.17027 0 1.99414V16.0059C0 16.8297 0.6729 17.5 1.5 17.5H11.5C12.3271 17.5 13 16.8297 13 16.0059V4.81641H9.16667ZM10.7844 13.154C10.5385 13.5783 10.0979 13.8317 9.606 13.8317C9.11403 13.8317 8.6735 13.5783 8.42753 13.154L7.82643 12.1169H5.17357L4.57247 13.154C4.3265 13.5783 3.88593 13.8317 3.394 13.8317H3.39397C2.90203 13.8317 2.4615 13.5783 2.21557 13.1539C1.9696 12.7296 1.96957 12.2229 2.21557 11.7985C2.46153 11.3742 2.90207 11.1208 3.394 11.1208H4.5962L5.92263 8.83232L5.32153 7.79526C5.07557 7.37089 5.07553 6.86418 5.32153 6.43981C5.5675 6.01544 6.00803 5.76206 6.5 5.76206C6.99197 5.76206 7.4325 6.0154 7.67847 6.43981C7.92447 6.86418 7.92443 7.37089 7.67847 7.79526L7.07733 8.83232L8.40377 11.1208H9.60597C10.0979 11.1208 10.5384 11.3742 10.7844 11.7985C11.0304 12.2229 11.0304 12.7296 10.7844 13.154Z" fill="#595959"/>
<path d="M9.606 12.1169H8.98114L9.29357 12.6559C9.38757 12.8181 9.54337 12.8356 9.606 12.8356C9.66864 12.8356 9.82444 12.8181 9.9184 12.6559C10.0124 12.4937 9.9497 12.3506 9.9184 12.2966C9.8871 12.2426 9.79397 12.1169 9.606 12.1169ZM9.66667 0.791623V3.82031H12.707L9.66667 0.791623Z" fill="#595959"/>
</svg>
