<svg width="13" height="18" viewBox="0 0 13 18" fill="none" xmlns="http://www.w3.org/2000/svg">
<path fill-rule="evenodd" clip-rule="evenodd" d="M6.5 4.36364V0.5H2.16667C1.59203 0.5 1.04093 0.744236 0.634602 1.17898C0.228273 1.61372 0 2.20336 0 2.81818V15.1818C0 15.7966 0.228273 16.3863 0.634602 16.821C1.04093 17.2558 1.59203 17.5 2.16667 17.5H10.8333C11.408 17.5 11.9591 17.2558 12.3654 16.821C12.7717 16.3863 13 15.7966 13 15.1818V6.68182H8.66667C8.09203 6.68182 7.54093 6.43758 7.1346 6.00284C6.72827 5.5681 6.5 4.97846 6.5 4.36364ZM7.94444 4.36364V0.929636C7.99717 0.969818 8.04844 1.01232 8.09756 1.05791L12.2431 4.85973C12.3363 4.94473 12.4215 5.03745 12.4981 5.13636H8.66667C8.47512 5.13636 8.29142 5.05495 8.15598 4.91004C8.02054 4.76512 7.94444 4.56858 7.94444 4.36364ZM3.88194 9.55636L2.07639 11.1018C1.99204 11.1742 1.92396 11.266 1.87718 11.3703C1.8304 11.4746 1.80612 11.5888 1.80612 11.7045C1.80612 11.8202 1.8304 11.9345 1.87718 12.0388C1.92396 12.1431 1.99204 12.2349 2.07639 12.3073L3.88194 13.8527L4.78472 12.6473L3.68333 11.7045L4.784 10.7618L3.88194 9.55636ZM10.9236 12.3073L9.11806 13.8527L8.21528 12.6473L9.31667 11.7045L8.216 10.7618L9.11878 9.55636L10.9243 11.1018C11.0087 11.1742 11.0768 11.266 11.1235 11.3703C11.1703 11.4746 11.1946 11.5888 11.1946 11.7045C11.1946 11.8202 11.1703 11.9345 11.1235 12.0388C11.0768 12.1431 11.008 12.2349 10.9236 12.3073ZM6.52167 8.42664L5.07722 14.6085L6.47833 14.9832L7.92278 8.80141L6.52167 8.42664Z" fill="#595959"/>
</svg>
